{
  "accessors": [
    {
      "bufferView": 2,
      "componentType": 5126,
      "count": 9477,
      "max": [
        20.553585052490234,
        57.085765838623047,
        20.489536285400391
      ],
      "min": [
        -20.5535888671875,
        -42.367298126220703,
        -65.562232971191406
      ],
      "type": "VEC3"
    },
    {
      "bufferView": 2,
      "byteOffset": 113724,
      "componentType": 5126,
      "count": 9477,
      "max": [
        1,
        1,
        1
      ],
      "min": [
        -1,
        -1,
        -1
      ],
      "type": "VEC3"
    },
    {
      "bufferView": 3,
      "componentType": 5126,
      "count": 9477,
      "max": [
        1,
        1,
        1,
        1
      ],
      "min": [
        -1,
        -1,
        -1,
        -1
      ],
      "type": "VEC4"
    },
    {
      "bufferView": 1,
      "componentType": 5126,
      "count": 9477,
      "max": [
        0.99656599760055542,
        0.99637299776077271
      ],
      "min": [
        0.0019620000384747982,
        0.0019620000384747982
      ],
      "type": "VEC2"
    },
    {
      "bufferView": 1,
      "byteOffset": 75816,
      "componentType": 5126,
      "count": 9477,
      "max": [
        0.99656599760055542,
        0.99637299776077271
      ],
      "min": [
        0.0019620000384747982,
        0.0019620000384747982
      ],
      "type": "VEC2"
    },
    {
      "bufferView": 1,
      "byteOffset": 151632,
      "componentType": 5126,
      "count": 9477,
      "max": [
        0.99656599760055542,
        0.99637299776077271
      ],
      "min": [
        0.0019620000384747982,
        0.0019620000384747982
      ],
      "type": "VEC2"
    },
    {
      "bufferView": 0,
      "componentType": 5125,
      "count": 40308,
      "max": [
        9476
      ],
      "min": [
        0
      ],
      "type": "SCALAR"
    },
    {
      "bufferView": 2,
      "byteOffset": 227448,
      "componentType": 5126,
      "count": 23919,
      "max": [
        30.600008010864258,
        67.957077026367188,
        21.76324462890625
      ],
      "min": [
        -30.600015640258789,
        -43.761569976806641,
        -77.483322143554688
      ],
      "type": "VEC3"
    },
    {
      "bufferView": 2,
      "byteOffset": 514476,
      "componentType": 5126,
      "count": 23919,
      "max": [
        1,
        1,
        1
      ],
      "min": [
        -1,
        -1,
        -1
      ],
      "type": "VEC3"
    },
    {
      "bufferView": 3,
      "byteOffset": 151632,
      "componentType": 5126,
      "count": 23919,
      "max": [
        1,
        1,
        1,
        1
      ],
      "min": [
        -1,
        -1,
        -1,
        -1
      ],
      "type": "VEC4"
    },
    {
      "bufferView": 1,
      "byteOffset": 227448,
      "componentType": 5126,
      "count": 23919,
      "max": [
        0.9965369701385498,
        0.99642997980117798
      ],
      "min": [
        0.0019710063934326172,
        0.0019710001070052385
      ],
      "type": "VEC2"
    },
    {
      "bufferView": 1,
      "byteOffset": 418800,
      "componentType": 5126,
      "count": 23919,
      "max": [
        0.9965369701385498,
        0.99642997980117798
      ],
      "min": [
        0.0019710063934326172,
        0.0019710001070052385
      ],
      "type": "VEC2"
    },
    {
      "bufferView": 1,
      "byteOffset": 610152,
      "componentType": 5126,
      "count": 23919,
      "max": [
        0.9965369701385498,
        0.99642997980117798
      ],
      "min": [
        0.0019710063934326172,
        0.0019710001070052385
      ],
      "type": "VEC2"
    },
    {
      "bufferView": 0,
      "byteOffset": 161232,
      "componentType": 5125,
      "count": 101958,
      "max": [
        23918
      ],
      "min": [
        0
      ],
      "type": "SCALAR"
    }
  ],
  "asset": {
    "extras": {
      "author": "Alessandro de Buck (https://sketchfab.com/AlessandroDebuck)",
      "license": "CC-BY-SA-4.0 (http://creativecommons.org/licenses/by-sa/4.0/)",
      "source": "https://sketchfab.com/3d-models/alpine-a110-monobike-versiontexturingchallenge-88ae4eb19a1d4c3c8765a70ccff59f8a",
      "title": "Alpine A110 MonoBike version(TexturingChallenge)"
    },
    "generator": "Sketchfab-9.14.0",
    "version": "2.0"
  },
  "bufferViews": [
    {
      "buffer": 0,
      "byteLength": 569064,
      "byteOffset": 0,
      "name": "floatBufferViews",
      "target": 34963
    },
    {
      "buffer": 0,
      "byteLength": 801504,
      "byteOffset": 569064,
      "byteStride": 8,
      "name": "floatBufferViews",
      "target": 34962
    },
    {
      "buffer": 0,
      "byteLength": 801504,
      "byteOffset": 1370568,
      "byteStride": 12,
      "name": "floatBufferViews",
      "target": 34962
    },
    {
      "buffer": 0,
      "byteLength": 534336,
      "byteOffset": 2172072,
      "byteStride": 16,
      "name": "floatBufferViews",
      "target": 34962
    }
  ],
  "buffers": [
    {
      "byteLength": 2706408,
      "uri": "scene.bin"
    }
  ],
  "images": [
    {
      "uri": "textures/Monobike_U1_baseColor.png"
    },
    {
      "uri": "textures/Monobike_U1_metallicRoughness.png"
    },
    {
      "uri": "textures/Monobike_U1_normal.png"
    },
    {
      "uri": "textures/Monobike_U2_baseColor.png"
    },
    {
      "uri": "textures/Monobike_U2_metallicRoughness.png"
    },
    {
      "uri": "textures/Monobike_U2_emissive.png"
    },
    {
      "uri": "textures/Monobike_U2_normal.png"
    }
  ],
  "materials": [
    {
      "doubleSided": true,
      "name": "Monobike_U1",
      "normalTexture": {
        "index": 2,
        "scale": 1,
        "texCoord": 0
      },
      "occlusionTexture": {
        "index": 1,
        "strength": 1,
        "texCoord": 0
      },
      "pbrMetallicRoughness": {
        "baseColorFactor": [
          1,
          1,
          1,
          1
        ],
        "baseColorTexture": {
          "index": 0,
          "texCoord": 0
        },
        "metallicFactor": 1,
        "metallicRoughnessTexture": {
          "index": 1,
          "texCoord": 0
        },
        "roughnessFactor": 1
      }
    },
    {
      "alphaMode": "BLEND",
      "doubleSided": true,
      "emissiveFactor": [
        1,
        1,
        1
      ],
      "emissiveTexture": {
        "index": 5,
        "texCoord": 0
      },
      "name": "Monobike_U2",
      "normalTexture": {
        "index": 6,
        "scale": 0.60364719187202454,
        "texCoord": 0
      },
      "occlusionTexture": {
        "index": 4,
        "strength": 1,
        "texCoord": 0
      },
      "pbrMetallicRoughness": {
        "baseColorFactor": [
          1,
          1,
          1,
          1
        ],
        "baseColorTexture": {
          "index": 3,
          "texCoord": 0
        },
        "metallicFactor": 1,
        "metallicRoughnessTexture": {
          "index": 4,
          "texCoord": 0
        },
        "roughnessFactor": 1
      }
    }
  ],
  "meshes": [
    {
      "name": "Monobike_Monobike_U1_0",
      "primitives": [
        {
          "attributes": {
            "NORMAL": 1,
            "POSITION": 0,
            "TANGENT": 2,
            "TEXCOORD_0": 3,
            "TEXCOORD_1": 4,
            "TEXCOORD_2": 5
          },
          "indices": 6,
          "material": 0,
          "mode": 4
        }
      ]
    },
    {
      "name": "Monobike_Monobike_U2_0",
      "primitives": [
        {
          "attributes": {
            "NORMAL": 8,
            "POSITION": 7,
            "TANGENT": 9,
            "TEXCOORD_0": 10,
            "TEXCOORD_1": 11,
            "TEXCOORD_2": 12
          },
          "indices": 13,
          "material": 1,
          "mode": 4
        }
      ]
    }
  ],
  "nodes": [
    {
      "children": [
        1
      ],
      "name": "RootNode (gltf orientation matrix)",
      "rotation": [
        -0.70710678118654746,
        -0,
        -0,
        0.70710678118654757
      ]
    },
    {
      "children": [
        2
      ],
      "matrix": [
        0.011135589331388474,
        0,
        0,
        0,
        0,
        0.011135589331388474,
        0,
        0,
        0,
        0,
        0.011135589331388474,
        0,
        0,
        0,
        0,
        1
      ],
      "name": "RootNode (model correction matrix)"
    },
    {
      "children": [
        3
      ],
      "matrix": [
        1,
        0,
        0,
        0,
        0,
        0,
        1,
        0,
        0,
        -1,
        0,
        0,
        0,
        0,
        0,
        1
      ],
      "name": "ba5075dc0bc948a9ad2c1bcf36834174.fbx"
    },
    {
      "children": [
        4
      ],
      "name": "RootNode"
    },
    {
      "children": [
        5,
        6
      ],
      "matrix": [
        1,
        0,
        0,
        0,
        -0,
        -1.6292067939183141e-07,
        -0.99999999999998679,
        0,
        0,
        0.99999999999998679,
        -1.6292067939183141e-07,
        0,
        -1.9869310563080944e-05,
        76.598617553710938,
        -5.2460746765136719,
        1
      ],
      "name": "Monobike"
    },
    {
      "mesh": 0,
      "name": "Monobike_Monobike_U1_0"
    },
    {
      "mesh": 1,
      "name": "Monobike_Monobike_U2_0"
    }
  ],
  "samplers": [
    {
      "magFilter": 9729,
      "minFilter": 9987,
      "wrapS": 10497,
      "wrapT": 10497
    }
  ],
  "scene": 0,
  "scenes": [
    {
      "name": "OSG_Scene",
      "nodes": [
        0
      ]
    }
  ],
  "textures": [
    {
      "sampler": 0,
      "source": 0
    },
    {
      "sampler": 0,
      "source": 1
    },
    {
      "sampler": 0,
      "source": 2
    },
    {
      "sampler": 0,
      "source": 3
    },
    {
      "sampler": 0,
      "source": 4
    },
    {
      "sampler": 0,
      "source": 5
    },
    {
      "sampler": 0,
      "source": 6
    }
  ]
}

